<svg width="86" height="71" viewBox="0 0 86 71" fill="none" xmlns="http://www.w3.org/2000/svg">
<path d="M43.9288 41.782L10.4121 65.6784C9.81028 66.1066 9.7904 66.0814 10.3525 65.6029C25.2231 52.9286 40.1402 40.3072 55.1037 27.7388C55.1991 27.6556 55.3118 27.6141 55.4417 27.6141C59.0898 27.5965 62.7365 27.5851 66.3819 27.5801C74.3316 27.5725 82.7585 30.901 84.2936 39.1184C85.7411 46.8786 82.7784 52.4286 75.4054 55.7685C75.2701 55.8289 75.245 55.9171 75.3298 56.033L85.9797 70.7638C85.9925 70.7824 85.9998 70.804 86.0009 70.8262C86.0019 70.8484 85.9967 70.8705 85.9857 70.8901C85.9748 70.9098 85.9585 70.9263 85.9386 70.938C85.9186 70.9496 85.8958 70.956 85.8724 70.9565H71.691C71.5558 70.9565 71.4511 70.9036 71.3768 70.7978L62.3932 57.9862C62.3189 57.8805 62.2142 57.8276 62.079 57.8276H56.941C56.8084 57.8276 56.7421 57.8905 56.7421 58.0165V70.7675C56.7421 70.8935 56.6758 70.9565 56.5433 70.9565H44.3145C44.182 70.9565 44.1157 70.8935 44.1157 70.7675V41.8689C44.1157 41.7203 44.0534 41.6913 43.9288 41.782ZM56.7739 38.1134V48.269C56.7739 48.2829 56.7768 48.2966 56.7824 48.3095C56.788 48.3223 56.7962 48.3339 56.8065 48.3438C56.8169 48.3536 56.8292 48.3614 56.8427 48.3667C56.8562 48.372 56.8706 48.3748 56.8853 48.3748H65.9246C66.7043 48.3748 67.4764 48.2518 68.1967 48.013C68.9171 47.7741 69.5716 47.424 70.123 46.9827C70.6743 46.5413 71.1117 46.0174 71.41 45.4407C71.7084 44.8641 71.862 44.2461 71.862 43.6219V42.7605C71.862 41.5 71.2365 40.2911 70.123 39.3997C69.0095 38.5084 67.4993 38.0076 65.9246 38.0076H56.8853C56.8706 38.0076 56.8562 38.0104 56.8427 38.0157C56.8292 38.021 56.8169 38.0288 56.8065 38.0386C56.7962 38.0485 56.788 38.0601 56.7824 38.073C56.7768 38.0858 56.7739 38.0995 56.7739 38.1134Z" fill="#484848"/>
<path d="M32.0174 20.8182C37.5054 22.7714 40.9215 25.6844 40.7784 31.6689C40.7757 31.82 40.8367 31.849 40.9613 31.7558L78.4628 4.4061C78.7358 4.20461 78.7438 4.21342 78.4866 4.43255C59.6974 20.4139 45.7282 32.2293 36.5788 39.8787C33.0116 42.8596 27.4838 43.3583 22.9383 43.3734C15.3585 43.3961 7.77735 43.3974 0.194867 43.3772C0.064957 43.3747 0 43.3117 0 43.1883V0.227528C0 0.114185 0.0609806 0.0562515 0.182937 0.0537327C8.21612 0.013433 16.2387 -0.00419788 24.2507 0.000839586C31.3374 0.00461768 38.8297 3.44269 38.7502 11.1122C38.7051 15.4193 36.4582 18.5803 32.0095 20.5953C31.9867 20.6052 31.9675 20.6213 31.9543 20.6416C31.9411 20.6619 31.9345 20.6854 31.9354 20.7092C31.9362 20.733 31.9445 20.7561 31.9591 20.7755C31.9737 20.7949 31.994 20.8097 32.0174 20.8182ZM12.3202 9.84279L12.3361 17.1572C12.3361 17.2003 12.3541 17.2416 12.3862 17.2721C12.4183 17.3025 12.4618 17.3196 12.5071 17.3196L21.0255 17.3045C22.4119 17.302 23.7407 16.9296 24.7199 16.2693C25.699 15.609 26.2483 14.7149 26.247 13.7833V13.1713C26.2464 12.7097 26.1104 12.2528 25.8468 11.8268C25.5833 11.4007 25.1972 11.0138 24.7108 10.6882C24.2245 10.3626 23.6472 10.1047 23.0122 9.92918C22.3771 9.75364 21.6966 9.66395 21.0096 9.66522L12.4912 9.68033C12.4459 9.68033 12.4024 9.69745 12.3703 9.72791C12.3382 9.75838 12.3202 9.7997 12.3202 9.84279ZM12.3282 25.8355V33.641C12.3282 33.6544 12.3309 33.6677 12.3363 33.6801C12.3417 33.6924 12.3496 33.7037 12.3596 33.7132C12.3696 33.7226 12.3814 33.7302 12.3944 33.7353C12.4075 33.7404 12.4214 33.743 12.4355 33.743H22.6401C24.0966 33.743 25.4935 33.353 26.5235 32.6586C27.5534 31.9642 28.1321 31.0225 28.1321 30.0405V29.436C28.1321 28.454 27.5534 27.5123 26.5235 26.8179C25.4935 26.1236 24.0966 25.7335 22.6401 25.7335H12.4355C12.4071 25.7335 12.3797 25.7442 12.3596 25.7634C12.3395 25.7825 12.3282 25.8084 12.3282 25.8355Z" fill="#484848"/>
</svg>
